<?xml version="1.0" encoding="UTF-8"?>
<svg width="212px" height="190px" viewBox="0 0 212 190" version="1.1" xmlns="http://www.w3.org/2000/svg" xmlns:xlink="http://www.w3.org/1999/xlink">
    <title>&lt;Group&gt;</title>
    <defs>
        <linearGradient x1="142.27749%" y1="55.1387526%" x2="56.5882321%" y2="146.119832%" id="linearGradient-1">
            <stop stop-color="#6A4BFE" offset="0%"></stop>
            <stop stop-color="#02FFFE" offset="100%"></stop>
        </linearGradient>
    </defs>
    <g id="Page-1" stroke="none" stroke-width="1" fill="none" fill-rule="evenodd">
        <g id="&lt;Group&gt;" transform="translate(-144, -155)">
            <g fill="url(#linearGradient-1)" id="&lt;Compound-Path&gt;">
                <path d="M317.2,155.1 L317.2,268.9 L312.9,271.4 L295,281.7 L286.5,286.6 L277.9,281.7 L260.8,291.6 L258.6,292.9 L250,297.8 L241.4,292.9 L239.2,291.6 L230.7,286.6 L222.1,281.7 L213.6,286.6 L205,281.7 L187.1,271.4 L182.8,268.9 L182.8,155.1 L222.1,177.8 L230.7,182.7 L230.7,217.4 L239.2,222.3 L250,228.6 L260.8,222.3 L269.4,217.4 L269.4,182.7 L277.9,177.8 L317.2,155.1 Z M239.3,261.9 L245.7,258.1 L245.7,235.9 L239.3,232.2 L222.1,222.3 L222.1,187.7 L191.4,169.9 L191.4,263.9 L213.6,276.7 L239.3,261.9 Z M269.4,276.8 L260.8,271.8 L254.3,268.1 L250,265.6 L245.7,268.1 L239.3,271.8 L230.7,276.8 L235.8,279.7 L239.3,281.7 L247.8,286.7 L250,287.9 L252.2,286.7 L260.8,281.7 L269.4,276.8 Z M308.7,170 L278,187.7 L278,222.7 L269.4,227.5 L260.8,232.3 L254.3,236 L254.3,258.2 L260.8,262 L269.4,266.9 L278,271.9 L286.5,276.8 L308.7,264 L308.7,170 Z"></path>
            </g>
            <g fill="currentColor">
                <g>
                    <g id="&lt;Path&gt;">
                        <path d="M154,324.9 C155.2,324.233333 156.533333,323.9 158,323.9 C159.266667,323.9 160.433333,324.2 161.5,324.8 C162.566667,325.333333 163.5,326.2 164.3,327.4 L168.9,324.8 C167.9,322.866667 166.466667,321.4 164.6,320.4 C162.666667,319.4 160.466667,318.9 158,318.9 C155.333333,318.9 152.966667,319.433333 150.9,320.5 C148.833333,321.633333 147.2,323.166667 146,325.1 C144.866667,327.1 144.3,329.366667 144.3,331.9 C144.3,334.366667 144.866667,336.6 146,338.6 C147.2,340.533333 148.833333,342.066667 150.9,343.2 C152.966667,344.333333 155.333333,344.9 158,344.9 C160.466667,344.9 162.666667,344.366667 164.6,343.3 C166.466667,342.3 167.9,340.833333 168.9,338.9 L164.3,336.3 C163.5,337.5 162.566667,338.366667 161.5,338.9 C160.433333,339.5 159.266667,339.8 158,339.8 C156.533333,339.8 155.2,339.5 154,338.9 C152.866667,338.233333 151.966667,337.3 151.3,336.1 C150.633333,334.9 150.3,333.5 150.3,331.9 C150.3,330.233333 150.633333,328.8 151.3,327.6 C151.966667,326.4 152.866667,325.5 154,324.9 L154,324.9 Z"></path>
                    </g>
                    <g id="&lt;Path&gt;">
                        <path d="M223.1,319.4 L230.2,319.4 L225.5,324.1 L223.3,324.1 L223.3,344.6 L217.3,344.6 L217.3,324.1 L213.1,324.1 L213.1,319.4 L217.3,319.4 L217.3,317.7 C217.3,315.1 218.1,312.966667 219.7,311.3 C221.233333,309.7 223.466667,308.9 226.4,308.9 C227.466667,308.9 228.466667,309.033333 229.4,309.3 C230.333333,309.5 231.1,309.833333 231.7,310.3 L230.1,314.8 C229.633333,314.466667 229.133333,314.2 228.6,314 C228,313.8 227.4,313.7 226.8,313.7 C225.6,313.7 224.666667,314.066667 224,314.8 C223.4,315.466667 223.1,316.466667 223.1,317.8 L223.1,319.4 Z"></path>
                    </g>
                    <path d="M252.2,344.9 L242.2,344.9 C239.4,344.9 237.233333,344.166667 235.7,342.7 C234.166667,341.3 233.4,339.166667 233.4,336.3 L233.4,324.1 L228.8,324.1 L239.4,313.5 L239.4,319.4 L246.2,319.4 L246.2,324.1 L239.4,324.1 L239.4,336.2 C239.4,337.4 239.7,338.333333 240.3,339 C240.9,339.666667 241.766667,340 242.9,340 L247.3,340 L252.2,344.9 Z" id="&lt;Path&gt;"></path>
                    <g id="&lt;Path&gt;">
                        <polygon points="257.3 309.3 257.3 344.6 251.4 338.6 251.4 309.3"></polygon>
                    </g>
                    <g id="&lt;Path&gt;">
                        <path d="M266.7,309.3 C265.566667,309.3 264.633333,309.633333 263.9,310.3 C263.233333,310.966667 262.9,311.8 262.9,312.8 C262.9,313.8 263.233333,314.666667 263.9,315.4 C264.633333,316.066667 265.566667,316.4 266.7,316.4 C267.833333,316.4 268.733333,316.033333 269.4,315.3 C270.133333,314.633333 270.5,313.766667 270.5,312.7 C270.5,311.7 270.133333,310.866667 269.4,310.2 C268.666667,309.6 267.766667,309.3 266.7,309.3 Z"></path>
                        <polygon points="263.7 344.6 269.6 344.6 269.6 319.2 263.7 319.2"></polygon>
                    </g>
                    <g id="&lt;Compound-Path&gt;">
                        <path d="M299.2,325.1 C300.333333,327.033333 300.933333,329.3 301,331.9 C300.933333,334.366667 300.333333,336.6 299.2,338.6 C298.066667,340.533333 296.466667,342.066667 294.4,343.2 C292.333333,344.333333 290,344.9 287.4,344.9 C284.8,344.9 282.5,344.333333 280.5,343.2 C278.433333,342.066667 276.833333,340.533333 275.7,338.6 C274.5,336.6 273.9,334.366667 273.9,331.9 C273.9,329.366667 274.5,327.1 275.7,325.1 C276.833333,323.166667 278.433333,321.633333 280.5,320.5 C282.5,319.433333 284.8,318.9 287.4,318.9 C290,318.9 292.333333,319.433333 294.4,320.5 C296.466667,321.633333 298.066667,323.166667 299.2,325.1 Z M295,331.9 C295,330.233333 294.666667,328.8 294,327.6 C293.333333,326.4 292.433333,325.5 291.3,324.9 C290.166667,324.233333 288.866667,323.9 287.4,323.9 C286,323.9 284.733333,324.233333 283.6,324.9 C282.466667,325.5 281.566667,326.4 280.9,327.6 C280.233333,328.8 279.9,330.233333 279.9,331.9 C279.9,333.5 280.233333,334.9 280.9,336.1 C281.566667,337.3 282.466667,338.233333 283.6,338.9 C284.733333,339.5 286,339.8 287.4,339.8 C288.866667,339.8 290.166667,339.5 291.3,338.9 C292.433333,338.233333 293.333333,337.3 294,336.1 C294.666667,334.9 295,333.5 295,331.9 Z"></path>
                    </g>
                    <g id="&lt;Path&gt;">
                        <path d="M325.1,320.1 C323.5,319.3 321.666667,318.9 319.6,318.9 C317.4,318.9 315.466667,319.333333 313.8,320.2 C312.6,320.8 311.633333,321.566667 310.9,322.5 L310.9,319.2 L305.2,319.2 L305.2,344.6 L311.2,344.6 L311.2,331.7 C311.2,330.033333 311.5,328.633333 312.1,327.5 C312.633333,326.366667 313.433333,325.5 314.5,324.9 C315.633333,324.366667 316.9,324.1 318.3,324.1 C320.166667,324.1 321.633333,324.633333 322.7,325.7 C323.766667,326.833333 324.3,328.533333 324.3,330.8 L324.3,344.6 L330.2,344.6 L330.2,330 C330.2,327.466667 329.766667,325.366667 328.9,323.7 C327.966667,322.1 326.7,320.9 325.1,320.1 L325.1,320.1 Z"></path>
                    </g>
                    <g id="&lt;Path&gt;">
                        <path d="M354.9,333.6 C354.3,332.666667 353.533333,331.966667 352.6,331.5 C351.666667,331.033333 350.633333,330.633333 349.5,330.3 C348.433333,330.033333 347.333333,329.833333 346.2,329.7 C345.066667,329.566667 344.033333,329.4 343.1,329.2 C342.166667,328.933333 341.433333,328.6 340.9,328.2 C340.3,327.866667 340,327.3 340,326.5 C340,325.7 340.433333,325.033333 341.3,324.5 C342.233333,323.966667 343.6,323.7 345.4,323.7 C346.6,323.7 347.8,323.833333 349,324.1 C350.2,324.366667 351.4,324.866667 352.6,325.6 L354.9,321.1 C353.766667,320.366667 352.333333,319.833333 350.6,319.5 C348.866667,319.1 347.133333,318.9 345.4,318.9 C343.133333,318.9 341.166667,319.233333 339.5,319.9 C337.833333,320.5 336.533333,321.4 335.6,322.6 C334.666667,323.8 334.2,325.2 334.2,326.8 C334.2,328.266667 334.5,329.433333 335.1,330.3 C335.633333,331.233333 336.366667,331.966667 337.3,332.5 C338.233333,332.966667 339.266667,333.333333 340.4,333.6 C341.533333,333.866667 342.666667,334.1 343.8,334.3 C344.933333,334.433333 345.933333,334.6 346.8,334.8 C347.733333,335 348.5,335.266667 349.1,335.6 C349.633333,336 349.9,336.533333 349.9,337.2 C349.9,338.066667 349.5,338.766667 348.7,339.3 C347.833333,339.766667 346.466667,340 344.6,340 C343,340 341.4,339.766667 339.8,339.3 C338.266667,338.833333 336.933333,338.233333 335.8,337.5 L333.5,342 C334.633333,342.8 336.166667,343.5 338.1,344.1 C340.033333,344.633333 342.066667,344.9 344.2,344.9 C346.6,344.9 348.666667,344.566667 350.4,343.9 C352.066667,343.233333 353.366667,342.333333 354.3,341.2 C355.233333,340 355.7,338.6 355.7,337 C355.7,335.6 355.433333,334.466667 354.9,333.6 L354.9,333.6 Z"></path>
                    </g>
                    <g id="&lt;Compound-Path&gt;">
                        <path d="M210.7,329.2 L210.7,344.5 L204.9,344.5 L204.9,341.3 C204.3,342.233333 203.466667,343 202.4,343.6 C200.866667,344.466667 198.933333,344.9 196.6,344.9 C194.666667,344.9 192.966667,344.566667 191.5,343.9 C190.033333,343.233333 188.9,342.3 188.1,341.1 C187.3,339.9 186.9,338.533333 186.9,337 C186.9,335.533333 187.266667,334.233333 188,333.1 C188.666667,331.9 189.8,330.966667 191.4,330.3 C193,329.566667 195.133333,329.2 197.8,329.2 L204.5,329.2 L204.5,328.8 C204.566667,327.066667 204.033333,325.7 202.9,324.7 C202.033333,323.9 200.833333,323.4 199.3,323.2 C198.9,323.2 198.466667,323.2 198,323.2 L192.6,323.2 L197.7,318.1 L198.8,318.1 C202.533333,318.1 205.466667,319 207.6,320.8 C209.666667,322.6 210.7,325.4 210.7,329.2 L210.7,329.2 Z M204.5,333.3 L198.2,333.3 C196.133333,333.3 194.733333,333.633333 194,334.3 C193.266667,334.966667 192.9,335.8 192.9,336.8 C192.9,337.933333 193.366667,338.8 194.3,339.4 C195.166667,340.066667 196.366667,340.4 197.9,340.4 C199.433333,340.4 200.8,340.066667 202,339.4 C202,339.4 202,339.4 202,339.4 C203.7,338.4 204.5,336.5 204.5,334.6 L204.5,333.3 Z"></path>
                    </g>
                </g>
                <path d="M192.7,318.1 L187.5,323.2 C184,323.5 181.8,324.4 180.5,325.8 C180.366667,325.933333 180.233333,326.1 180.1,326.3 C179.766667,326.633333 179.5,327.066667 179.3,327.6 C179.3,327.6 179.3,327.6 179.3,327.6 C178.766667,328.733333 178.5,330.166667 178.5,331.9 L178.5,344.6 L172.3,344.6 L172.3,318.4 L178.2,318.4 L178.2,322.2 C178.933333,321.066667 179.933333,320.133333 181.2,319.4 C182.866667,318.533333 184.966667,318.1 187.5,318.1 L192.7,318.1 Z" id="&lt;Path&gt;"></path>
            </g>
        </g>
    </g>
</svg>
